<svg width="561" height="77" viewBox="0 0 561 77" fill="none" xmlns="http://www.w3.org/2000/svg">
<path d="M33.2969 20.6375H57.768V64.608H33.2969V20.6375Z" fill="#FF5F00"/>
<path d="M34.8508 42.6229C34.8508 33.6891 39.0458 25.7649 45.4935 20.6375C40.755 16.9086 34.7733 14.6558 28.2477 14.6558C12.7876 14.6558 0.280273 27.1631 0.280273 42.6229C0.280273 58.0823 12.7876 70.59 28.2474 70.59C34.773 70.59 40.7547 68.3371 45.4935 64.6079C39.0458 59.5583 34.8508 51.5567 34.8508 42.6229Z" fill="#EB001B"/>
<path d="M90.7846 42.6229C90.7846 58.0823 78.2772 70.59 62.8175 70.59C56.2918 70.59 50.3101 68.3371 45.5713 64.6079C52.0969 59.4808 56.2143 51.5567 56.2143 42.6229C56.2143 33.6891 52.0191 25.7649 45.5713 20.6375C50.3098 16.9086 56.2918 14.6558 62.8175 14.6558C78.2772 14.6558 90.7849 27.2409 90.7849 42.6229H90.7846Z" fill="#F79E1B"/>
<g opacity="0.8">
<path d="M531.877 20.0214C527.279 20.0214 522.783 21.3851 518.96 23.94C515.136 26.4948 512.156 30.1262 510.396 34.3748C508.636 38.6234 508.176 43.2984 509.073 47.8087C509.97 52.319 512.184 56.462 515.436 59.7137C518.688 62.9654 522.831 65.1799 527.341 66.0771C531.851 66.9742 536.526 66.5138 540.775 64.7539C545.024 62.9941 548.655 60.0139 551.21 56.1903C553.765 52.3667 555.128 47.8713 555.128 43.2726C555.122 37.108 552.67 31.1978 548.311 26.8387C543.952 22.4797 538.042 20.0279 531.877 20.0214ZM531.877 62.9467C527.986 62.9467 524.182 61.7928 520.947 59.631C517.711 57.4692 515.19 54.3965 513.701 50.8016C512.212 47.2066 511.822 43.2508 512.581 39.4344C513.34 35.618 515.214 32.1124 517.966 29.3609C520.717 26.6095 524.223 24.7357 528.039 23.9766C531.855 23.2174 535.811 23.607 539.406 25.0961C543.001 26.5852 546.074 29.1069 548.236 32.3423C550.397 35.5777 551.551 39.3815 551.551 43.2726C551.545 48.4887 549.471 53.4894 545.782 57.1778C542.094 60.8661 537.093 62.9408 531.877 62.9467ZM524.962 37.0708C525.973 38.9818 526.501 41.1108 526.501 43.2726C526.501 45.4344 525.973 47.5635 524.962 49.4744C524.855 49.6871 524.707 49.8762 524.526 50.0308C524.345 50.1854 524.135 50.3024 523.908 50.3748C523.682 50.4472 523.443 50.4737 523.206 50.4526C522.969 50.4315 522.738 50.3633 522.528 50.252C522.318 50.1407 522.131 49.9886 521.981 49.8045C521.83 49.6204 521.717 49.408 521.65 49.1799C521.582 48.9517 521.56 48.7123 521.586 48.4757C521.612 48.2392 521.685 48.0102 521.801 47.8021C522.549 46.4097 522.941 44.8535 522.941 43.2726C522.941 41.6918 522.549 40.1355 521.801 38.7431C521.591 38.325 521.553 37.8412 521.695 37.3955C521.838 36.9498 522.149 36.5776 522.563 36.3588C522.976 36.14 523.459 36.092 523.908 36.2251C524.356 36.3582 524.735 36.6618 524.962 37.0708ZM537.482 29.9166C539.682 34.0271 540.833 38.6172 540.833 43.2793C540.833 47.9415 539.682 52.5315 537.482 56.6421C537.244 57.0331 536.865 57.3179 536.423 57.4378C535.981 57.5578 535.51 57.5037 535.107 57.2868C534.704 57.0699 534.399 56.7066 534.256 56.2718C534.113 55.837 534.141 55.3638 534.336 54.9496C536.26 51.3581 537.267 47.3469 537.267 43.2726C537.267 39.1983 536.26 35.1871 534.336 31.5956C534.113 31.177 534.065 30.6867 534.203 30.2326C534.341 29.7786 534.653 29.3979 535.072 29.1743C535.491 28.9508 535.981 28.9027 536.435 29.0407C536.889 29.1786 537.27 29.4913 537.493 29.9099L537.482 29.9166ZM531.222 33.4937C532.828 36.5047 533.668 39.8647 533.668 43.2771C533.668 46.6895 532.828 50.0494 531.222 53.0605C531.114 53.2719 530.965 53.4598 530.784 53.6131C530.602 53.7663 530.392 53.8819 530.166 53.9531C529.939 54.0244 529.701 54.0498 529.464 54.0278C529.228 54.0059 528.998 53.9372 528.789 53.8256C528.579 53.7139 528.394 53.5617 528.244 53.3777C528.093 53.1937 527.981 52.9817 527.914 52.754C527.847 52.5263 527.826 52.2875 527.851 52.0514C527.877 51.8154 527.95 51.5869 528.065 51.3792C529.395 48.8857 530.091 46.1032 530.091 43.2771C530.091 40.451 529.395 37.6684 528.065 35.1749C527.95 34.9673 527.877 34.7388 527.851 34.5028C527.826 34.2667 527.847 34.0279 527.914 33.8002C527.981 33.5725 528.093 33.3604 528.244 33.1765C528.394 32.9925 528.579 32.8403 528.789 32.7286C528.998 32.617 529.228 32.5482 529.464 32.5263C529.701 32.5044 529.939 32.5298 530.166 32.601C530.392 32.6723 530.602 32.7879 530.784 32.9411C530.965 33.0944 531.114 33.2822 531.222 33.4937Z" fill="#F9FAFB"/>
</g>
</svg>
